<svg xmlns="http://www.w3.org/2000/svg" width="218" height="59" viewBox="0 0 218 59" xmlns:xlink="http://www.w3.org/1999/xlink">
  <defs>
    <path id="a" d="M29.887,13.158 C21.667,13.244 15.03,19.934 15.03,28.177 C15.03,36.47 21.754,43.195 30.048,43.195 C38.342,43.195 45.066,36.47 45.066,28.177 C45.066,19.935 38.43,13.244 30.21,13.158 L29.887,13.158 L29.887,13.158 Z"/>
    <path id="c" d="M29.887,13.158 C21.667,13.244 15.03,19.934 15.03,28.177 C15.03,36.47 21.754,43.195 30.048,43.195 C38.342,43.195 45.066,36.47 45.066,28.177 C45.066,19.935 38.43,13.244 30.21,13.158 L29.887,13.158 L29.887,13.158 Z"/>
    <path id="e" d="M29.887,13.158 C21.667,13.244 15.03,19.934 15.03,28.177 C15.03,36.47 21.754,43.195 30.048,43.195 C38.342,43.195 45.066,36.47 45.066,28.177 C45.066,19.935 38.43,13.244 30.21,13.158 L29.887,13.158 L29.887,13.158 Z"/>
    <path id="g" d="M29.887,13.158 C21.667,13.244 15.03,19.934 15.03,28.177 C15.03,36.47 21.754,43.195 30.048,43.195 C38.342,43.195 45.066,36.47 45.066,28.177 C45.066,19.935 38.43,13.244 30.21,13.158 L29.887,13.158 L29.887,13.158 Z"/>
    <path id="i" d="M29.887,13.158 C21.667,13.244 15.03,19.934 15.03,28.177 C15.03,36.47 21.754,43.195 30.048,43.195 C38.342,43.195 45.066,36.47 45.066,28.177 C45.066,19.935 38.43,13.244 30.21,13.158 L29.887,13.158 L29.887,13.158 Z"/>
    <path id="k" d="M29.887,13.158 C21.667,13.244 15.03,19.934 15.03,28.177 C15.03,36.47 21.754,43.195 30.048,43.195 C38.342,43.195 45.066,36.47 45.066,28.177 C45.066,19.935 38.43,13.244 30.21,13.158 L29.887,13.158 L29.887,13.158 Z"/>
    <path id="m" d="M29.887,13.158 C21.667,13.244 15.03,19.934 15.03,28.177 C15.03,36.47 21.754,43.195 30.048,43.195 C38.342,43.195 45.066,36.47 45.066,28.177 C45.066,19.935 38.43,13.244 30.21,13.158 L29.887,13.158 L29.887,13.158 Z"/>
    <path id="o" d="M29.887,13.158 C21.667,13.244 15.03,19.934 15.03,28.177 C15.03,36.47 21.754,43.195 30.048,43.195 C38.342,43.195 45.066,36.47 45.066,28.177 C45.066,19.935 38.43,13.244 30.21,13.158 L29.887,13.158 L29.887,13.158 Z"/>
    <path id="q" d="M29.887,13.158 C21.667,13.244 15.03,19.934 15.03,28.177 C15.03,36.47 21.754,43.195 30.048,43.195 C38.342,43.195 45.066,36.47 45.066,28.177 C45.066,19.935 38.43,13.244 30.21,13.158 L29.887,13.158 L29.887,13.158 Z"/>
  </defs>
  <g fill="none" fill-rule="evenodd">
    <path fill="#474747" d="M70.053 38.855L68.699 38.855 65.605 30.163C65.349 29.448 65.043 28.553 64.736 27.531L64.685 27.531C64.379 28.528 64.072 29.372 63.791 30.163L60.569 38.855 59.189 38.855 53.335 21.931 55.356 21.931 59.114 33.179C59.42 34.125 59.701 34.968 59.931 35.812L59.98 35.812C60.211 34.994 60.542 34.151 60.875 33.231L63.792 25.254 62.641 21.931 64.61 21.931 68.469 33.076C68.8 34.049 69.134 34.865 69.365 35.684L69.415 35.684C69.619 34.839 69.849 34.074 70.156 33.155L73.837 21.931 75.806 21.931 70.053 38.855zM84.682 37.602C83.735 38.573 82.406 39.111 80.846 39.111 79.338 39.111 78.034 38.599 77.089 37.628 75.99 36.505 75.401 34.792 75.401 32.797 75.401 30.804 76.016 29.142 77.089 28.018 78.061 27.022 79.363 26.458 80.872 26.458 82.432 26.458 83.735 27.021 84.708 28.018 85.779 29.142 86.394 30.804 86.394 32.797 86.395 34.792 85.78 36.478 84.682 37.602M80.872 28.042C78.596 28.042 77.294 29.883 77.294 32.746 77.294 35.607 78.648 37.501 80.898 37.501 83.148 37.501 84.502 35.607 84.502 32.746 84.502 29.882 83.201 28.042 80.872 28.042M90.944 39.111C89.461 39.111 88.822 38.163 88.822 36.886L88.822 20.755 90.688 20.755 90.688 36.042C90.688 37.192 90.97 37.422 91.686 37.422 91.812 37.422 92.017 37.422 92.324 37.348L92.554 38.701C91.992 38.984 91.559 39.111 90.944 39.111M98 39.111C96.263 39.111 95.417 38.089 95.417 36.529L95.417 28.347 93.45 28.347 93.45 26.763 95.417 26.763 95.417 24.104 97.283 23.466 97.283 26.763 100.99 26.763 100.325 28.347 97.283 28.347 97.283 35.966C97.283 36.989 97.666 37.448 98.46 37.448 99.328 37.448 100.121 36.963 100.607 36.579L101.194 37.908C100.301 38.573 99.125 39.111 98 39.111M103.94 33.127C103.94 35.429 105.269 37.474 107.951 37.474 108.974 37.474 110.099 37.065 110.814 36.604L111.377 37.883C110.507 38.599 108.974 39.111 107.569 39.111 103.785 39.111 101.944 36.017 101.944 32.566 101.944 29.064 103.938 26.458 106.852 26.458 109.969 26.458 111.684 28.937 111.684 32.694L111.684 33.128 103.94 33.128 103.94 33.127zM106.879 28.042C105.088 28.042 103.963 29.627 103.963 31.544L109.663 31.544C109.664 29.858 108.719 28.042 106.879 28.042L106.879 28.042zM119.909 28.629C119.654 28.527 119.27 28.424 118.759 28.424 118.045 28.424 116.868 29.039 116.101 29.882L116.101 38.855 114.235 38.855 114.235 26.763 115.768 26.763 116.026 28.143C117.686 26.635 118.607 26.455 119.475 26.455 120.012 26.455 120.473 26.66 120.702 26.814L119.909 28.629zM187.059 33.127C187.059 35.429 188.387 37.474 191.07 37.474 192.093 37.474 193.219 37.065 193.934 36.604L194.496 37.883C193.625 38.599 192.093 39.111 190.688 39.111 186.904 39.111 185.064 36.017 185.064 32.566 185.064 29.064 187.058 26.458 189.971 26.458 193.089 26.458 194.803 28.937 194.803 32.694L194.803 33.128 187.059 33.128 187.059 33.127zM189.998 28.042C188.207 28.042 187.082 29.627 187.082 31.544L192.783 31.544C192.783 29.858 191.837 28.042 189.998 28.042L189.998 28.042zM203.027 28.629C202.772 28.527 202.388 28.424 201.877 28.424 201.163 28.424 199.986 29.039 199.219 29.882L199.219 38.855 197.353 38.855 197.353 26.763 198.887 26.763 199.143 28.143C200.805 26.635 201.725 26.455 202.592 26.455 203.129 26.455 203.591 26.66 203.821 26.814L203.027 28.629zM124.646 39.111C122.908 39.111 121.861 38.651 121.068 38.19L121.783 36.733C122.346 37.089 123.394 37.602 124.724 37.602 126.206 37.602 127.281 36.937 127.281 35.812 127.281 32.847 121.783 33.896 121.783 29.653 121.783 27.914 123.037 26.458 125.799 26.458 127.076 26.458 128.047 26.736 128.839 27.096L128.839 28.733C127.998 28.377 127.128 28.018 125.873 28.018 124.646 28.018 123.625 28.452 123.625 29.551 123.625 32.26 129.224 31.572 129.224 35.531 129.224 38.063 127.128 39.111 124.646 39.111"/>
    <polygon fill="#474747" points="145.764 38.855 139.039 31.238 139.014 31.238 139.014 38.855 137.148 38.855 137.148 22.008 139.014 22.008 139.014 29.754 139.039 29.754 145.303 22.06 147.629 22.06 140.699 30.342 148.24 38.855"/>
    <path fill="#474747" d="M152.153 39.111C150.669 39.111 150.031 38.163 150.031 36.886L150.031 20.755 151.896 20.755 151.896 36.042C151.896 37.192 152.177 37.422 152.893 37.422 153.02 37.422 153.226 37.422 153.533 37.348L153.762 38.701C153.2 38.984 152.765 39.111 152.153 39.111M163.705 38.855L163.221 37.602C162.325 38.369 160.919 39.111 159.309 39.111 157.675 39.111 155.63 38.268 155.63 34.867L155.63 26.763 157.493 26.763 157.493 34.688C157.493 36.708 158.337 37.5 159.847 37.5 161.38 37.5 162.556 36.528 163.067 35.889L163.067 26.763 164.934 26.763 164.934 33.793C164.934 37.602 165.009 38.343 165.191 38.855L163.705 38.855 163.705 38.855z"/>
    <polygon fill="#474747" points="180.297 38.855 178.608 38.855 175.592 29.166 175.516 29.166 172.525 38.855 170.89 38.855 166.85 26.763 168.742 26.763 171.707 36.298 171.783 36.298 174.774 26.763 176.462 26.763 179.479 36.325 179.555 36.325 182.469 26.763 184.283 26.763"/>
    <mask id="b" fill="white">
      <use xlink:href="#a"/>
    </mask>
    <rect width="10.011" height="10.013" x="25.042" y="33.181" fill="#9ACD6E" mask="url(#b)"/>
    <mask id="d" fill="white">
      <use xlink:href="#c"/>
    </mask>
    <rect width="10.011" height="10.013" x="25.042" y="13.157" fill="#CAE3B2" mask="url(#d)"/>
    <mask id="f" fill="white">
      <use xlink:href="#e"/>
    </mask>
    <rect width="10.013" height="10.012" x="15.03" y="23.169" fill="#CAE3B2" mask="url(#f)"/>
    <mask id="h" fill="white">
      <use xlink:href="#g"/>
    </mask>
    <rect width="10.013" height="10.013" x="15.03" y="33.181" fill="#429ED6" mask="url(#h)"/>
    <mask id="j" fill="white">
      <use xlink:href="#i"/>
    </mask>
    <rect width="10.013" height="10.013" x="15.03" y="13.157" fill="#A0C4E6" mask="url(#j)"/>
    <mask id="l" fill="white">
      <use xlink:href="#k"/>
    </mask>
    <rect width="10.013" height="10.012" x="35.054" y="23.169" fill="#9ACD6E" mask="url(#l)"/>
    <mask id="n" fill="white">
      <use xlink:href="#m"/>
    </mask>
    <rect width="10.013" height="10.013" x="35.054" y="33.181" fill="#007BC6" mask="url(#n)"/>
    <mask id="p" fill="white">
      <use xlink:href="#o"/>
    </mask>
    <rect width="10.013" height="10.013" x="35.054" y="13.157" fill="#429ED6" mask="url(#p)"/>
    <mask id="r" fill="white">
      <use xlink:href="#q"/>
    </mask>
    <rect width="10.011" height="10.012" x="25.042" y="23.169" fill="#EF3E42" mask="url(#r)"/>
  </g>
</svg>
