<svg xmlns="http://www.w3.org/2000/svg" class="c-symbol-set">
    <symbol id="arrow" viewBox="0 0 44 44">
      <title>arrow symbol</title>
      <path fill-rule="evenodd" d="M44 22.976L35 16v6H0v2h35v6z"/>
    </symbol>
    <symbol id="dribbble" viewBox="0 0 44 44">
      <title>dribbble symbol</title>
      <path fill-rule="evenodd" d="M22.5 1.5c-11.594 0-21 9.406-21 21 0 11.605 9.406 21 21 21s21-9.395 21-21c0-11.594-9.406-21-21-21zm0 38.445c-9.636 0-17.445-7.81-17.445-17.445 0-9.636 7.81-17.445 17.445-17.445 9.636 0 17.445 7.81 17.445 17.445 0 9.636-7.81 17.445-17.445 17.445zm5.502-18.462c2.559-.24 5.567-.317 8.443-.263a13.889 13.889 0 0 0-2.953-7.393c-1.804 1.63-4.156 3.073-6.923 4.265a68.6 68.6 0 0 1 1.433 3.39zm3.182-9.964A13.921 13.921 0 0 0 22.5 8.5c-.558 0-1.116.033-1.663.098 1.51 1.936 2.92 4.113 4.222 6.508 2.374-1.006 4.441-2.22 6.125-3.587zM17.02 9.616a14.037 14.037 0 0 0-7.875 8.651c4.496-.076 8.707-.765 12.403-1.892a44.346 44.346 0 0 0-4.528-6.76zm19.37 14.656c-2.438-.066-5.03-.022-7.317.164a65.516 65.516 0 0 1 1.258 4.145 65.093 65.093 0 0 1 1.05 4.747 14.04 14.04 0 0 0 5.01-9.056zM22.72 22.51c.426-.175.962-.328 1.564-.47a59.055 59.055 0 0 0-1.181-2.658c-4.277 1.378-9.254 2.22-14.58 2.33-.011.262-.022.524-.022.798 0 3.183 1.06 6.114 2.844 8.466 2.723-3.555 6.66-6.486 11.375-8.466zm2.69 2.417c-.754.164-1.41.35-1.903.58-4.058 1.837-7.47 4.55-9.887 7.82A13.915 13.915 0 0 0 22.5 36.5c2.023 0 3.938-.427 5.666-1.192a66.189 66.189 0 0 0-1.094-4.999 65.734 65.734 0 0 0-1.663-5.38z"/>
    </symbol>
    <symbol id="github" viewBox="0 0 44 44">
      <title>github symbol</title>
      <path fill-rule="evenodd" d="M9.014 32.68a.296.296 0 0 0 .004-.01c.062-.229-.063-.533-.314-.685-.25-.152-.563-.076-.626.152-.125.228.063.533.313.685.185.112.403.1.53-.005-.056.168.018.395.195.559.17.21.512.316.683.158.17-.105.114-.422-.114-.685-.222-.206-.499-.311-.67-.169zM22.176.89C10.088.89.316 10.663.316 22.75c0 9.664 6.261 17.843 14.947 20.738 1.086.218 1.484-.47 1.484-1.05 0-.506-.036-2.243-.036-4.053-6.08 1.303-7.347-2.605-7.347-2.605-.977-2.534-2.425-3.185-2.425-3.185-1.99-1.34.145-1.34.145-1.34C9.292 31.4 10.45 33.5 10.45 33.5c1.954 3.33 5.103 2.39 6.37 1.81.18-1.411.76-2.389 1.375-2.931-4.85-.507-9.953-2.39-9.953-10.786 0-2.388.869-4.343 2.244-5.863-.217-.543-.977-2.787.217-5.79 0 0 1.846-.58 6.008 2.243 1.737-.47 3.62-.723 5.465-.723 1.846 0 3.728.253 5.465.723C31.803 9.36 33.65 9.94 33.65 9.94c1.194 3.003.434 5.247.217 5.79 1.412 1.52 2.244 3.475 2.244 5.863 0 8.397-5.103 10.243-9.989 10.786.796.687 1.484 1.99 1.484 4.053 0 2.932-.036 5.284-.036 6.008 0 .579.398 1.267 1.484 1.05C37.739 40.592 44 32.413 44 22.75 44.036 10.662 34.228.89 22.176.89zM10.6 34.723c-.21.14-.523 0-.68-.233-.21-.233-.21-.558 0-.651.209-.14.523 0 .68.232.21.233.21.512 0 .652zm1.093 1.2c-.131.182-.436.136-.698-.09-.218-.227-.306-.545-.131-.681.13-.182.436-.136.698.09.218.182.262.5.13.681zm1.55.733c-.039.268-.314.376-.59.268-.275-.107-.432-.43-.393-.644.04-.269.315-.376.59-.269a.605.605 0 0 1 .393.645zm1.75.093c0 .276-.23.497-.499.497a.501.501 0 0 1-.497-.497c0-.277.23-.498.497-.498.268 0 .498.221.498.498zm1.69-.333a.545.545 0 0 1-.433.596c-.276.054-.512-.108-.552-.38a.545.545 0 0 1 .434-.595c.276-.054.512.109.551.38z"/>
    </symbol>
    <symbol id="home" viewBox="0 0 44 44">
      <title>home symbol</title>
      <path fill-rule="evenodd" d="M18.8 38V26.706h7.4V38h9.25V22.941H41L22.5 6 4 22.941h5.55V38z"/>
    </symbol>
    <symbol id="medium" viewBox="0 0 44 44">
      <title>medium symbol</title>
      <g fill-rule="evenodd"><path fill-opacity=".6" d="M20.42 19.476l8.382-13.811c.384-.6 1.23-.838 1.88-.53l12.936 6.24c.083.042.113.14.065.21L29.435 33.7 20.42 19.476z"/><path fill-opacity=".4" d="M29.435 33.7l12.08 5.854c1.309.643 2.371.196 2.371-.977l-.15-27.067-14.3 22.19z"/><path fill-opacity=".7" d="M2.149 6.268l13.118 20.56L29.435 33.7 15.298 11.384a.216.216 0 0 0-.082-.075L2.966 5.403c-1.085-.525-1.454-.135-.817.865z"/><path d="M15.276 38.585c0 1.172-.889 1.703-1.976 1.178L2.185 34.402C1.533 34.089 1 33.257 1 32.552V6.274c0-.938.711-1.363 1.582-.943L15.2 11.42c.047.02.076.067.076.117v27.049z"/></g>
    </symbol>
    <symbol id="twitter" viewBox="0 0 44 44">
      <title>twitter symbol</title>
      <path fill-rule="evenodd" d="M42.938 9.285c-1.542.69-3.191 1.15-4.916 1.35a8.594 8.594 0 0 0 3.77-4.756 17.26 17.26 0 0 1-5.45 2.086A8.518 8.518 0 0 0 30.1 5.25c-4.733 0-8.565 3.85-8.565 8.606 0 .675.077 1.335.23 1.964-7.13-.369-13.435-3.79-17.664-8.99a8.64 8.64 0 0 0-1.16 4.326 8.603 8.603 0 0 0 3.816 7.164 8.527 8.527 0 0 1-3.877-1.074v.108a8.597 8.597 0 0 0 6.87 8.437c-.718.2-1.481.307-2.26.307a9.48 9.48 0 0 1-1.618-.154c1.084 3.421 4.26 5.907 8 5.983a17.179 17.179 0 0 1-12.687 3.56 24.162 24.162 0 0 0 13.13 3.865c15.754 0 24.364-13.116 24.364-24.483 0-.369-.015-.752-.03-1.12a17.488 17.488 0 0 0 4.29-4.464z"/>
    </symbol></svg>