<svg xmlns="http://www.w3.org/2000/svg" width="44" height="44" viewBox="0 0 44 44">
  <path fill="#000000" fill-rule="evenodd" d="M22.5,1.5 C10.90625,1.5 1.5,10.90625 1.5,22.5 C1.5,34.1046875 10.90625,43.5 22.5,43.5 C34.09375,43.5 43.5,34.1046875 43.5,22.5 C43.5,10.90625 34.09375,1.5 22.5,1.5 L22.5,1.5 Z M22.5,39.9453125 C12.8640625,39.9453125 5.0546875,32.1359375 5.0546875,22.5 C5.0546875,12.8640625 12.8640625,5.0546875 22.5,5.0546875 C32.1359375,5.0546875 39.9453125,12.8640625 39.9453125,22.5 C39.9453125,32.1359375 32.1359375,39.9453125 22.5,39.9453125 Z M28.0015625,21.4828125 C30.5609375,21.2421875 33.56875,21.165625 36.4453125,21.2203125 C36.19375,18.4421875 35.1328125,15.89375 33.4921875,13.8265625 C31.6875,15.45625 29.3359375,16.9 26.56875,18.0921875 C27.071875,19.1859375 27.5421875,20.3234375 28.0015625,21.4828125 Z M31.184375,11.51875 C28.8,9.6265625 25.78125,8.5 22.5,8.5 C21.9421875,8.5 21.384375,8.5328125 20.8375,8.5984375 C22.346875,10.534375 23.7578125,12.7109375 25.059375,15.10625 C27.4328125,14.1 29.5,12.8859375 31.184375,11.51875 Z M17.0203125,9.615625 C13.290625,11.2015625 10.38125,14.3625 9.1453125,18.2671875 C13.640625,18.190625 17.8515625,17.5015625 21.5484375,16.375 C20.1703125,13.859375 18.6390625,11.5953125 17.0203125,9.615625 Z M36.390625,24.271875 C33.9515625,24.20625 31.359375,24.25 29.0734375,24.4359375 C29.521875,25.78125 29.959375,27.159375 30.33125,28.58125 C30.746875,30.178125 31.096875,31.7640625 31.38125,33.328125 C34.071875,31.1078125 35.93125,27.903125 36.390625,24.271875 Z M22.71875,22.5109375 C23.1453125,22.3359375 23.68125,22.1828125 24.2828125,22.040625 C23.9109375,21.1328125 23.50625,20.246875 23.1015625,19.3828125 C18.825,20.7609375 13.8484375,21.603125 8.521875,21.7125 C8.5109375,21.975 8.5,22.2375 8.5,22.5109375 C8.5,25.69375 9.5609375,28.625 11.34375,30.9765625 C14.0671875,27.421875 18.0046875,24.490625 22.71875,22.5109375 Z M25.409375,24.928125 C24.6546875,25.0921875 23.9984375,25.278125 23.50625,25.5078125 C19.4484375,27.3453125 16.0359375,30.0578125 13.61875,33.328125 C16.0359375,35.31875 19.13125,36.5 22.5,36.5 C24.5234375,36.5 26.4375,36.0734375 28.165625,35.3078125 C27.8703125,33.65625 27.509375,31.99375 27.071875,30.309375 C26.590625,28.4609375 26.021875,26.65625 25.409375,24.928125 Z"/>
</svg>
