<svg xmlns="http://www.w3.org/2000/svg" width="44" height="44" viewBox="0 0 44 44">
  <path fill="#000000" fill-rule="evenodd" d="M9.014464,32.6801944 C9.01557275,32.6766771 9.01662066,32.6731219 9.01760651,32.669529 C9.08023979,32.4412766 8.95497322,32.1369273 8.70444636,31.9847489 C8.45392575,31.8325705 8.1407656,31.9086521 8.07813232,32.1369197 C7.95287202,32.3651798 8.1407656,32.669529 8.39129247,32.8217074 C8.57570914,32.9337283 8.79406124,32.9220588 8.9214418,32.8170489 C8.86530031,32.9845026 8.93908873,33.2120517 9.11606579,33.3759091 C9.28679874,33.5866792 9.62827034,33.6920669 9.7990033,33.5339906 C9.96973625,33.428603 9.91282337,33.1124505 9.68517753,32.8489866 C9.46288178,32.64317 9.18631681,32.5378406 9.014464,32.6801944 Z M22.1761657,0.89053863 C10.0880504,0.89053863 0.316223754,10.6623652 0.316223754,22.7504805 C0.316223754,32.413732 6.57743171,40.5931115 15.2634998,43.4884679 C16.3492583,43.7056191 16.7473695,43.0179714 16.7473695,42.4389006 C16.7473695,41.9322128 16.7111802,40.1950007 16.7111802,38.3854038 C10.6309297,39.6883125 9.36421381,35.7795826 9.36421381,35.7795826 C8.38703043,33.2461473 6.93935,32.5946893 6.93935,32.5946893 C4.94879394,31.2555876 7.08411805,31.2555876 7.08411805,31.2555876 C9.29182798,31.4003557 10.4499723,33.4994905 10.4499723,33.4994905 C12.4043355,36.8291482 15.5530359,35.8881577 16.8197553,35.3090856 C17.0007127,33.8976017 17.5797849,32.9204183 18.1950499,32.377539 C13.3453259,31.8708527 8.24226239,29.9888718 8.24226239,21.5923362 C8.24226239,19.2036689 9.11086702,17.2493021 10.4861616,15.7292395 C10.2690114,15.1863602 9.50897824,12.9424574 10.7033155,9.93852863 C10.7033155,9.93852863 12.5491035,9.35945646 16.7111802,12.1824279 C18.4483931,11.7119344 20.330374,11.4585913 22.1761657,11.4585913 C24.0219537,11.4585913 25.9039383,11.7119344 27.6411511,12.1824279 C31.8032242,9.35945646 33.6490122,9.93852863 33.6490122,9.93852863 C34.8433495,12.9424574 34.0833164,15.1863602 33.8661661,15.7292395 C35.27765,17.2493021 36.1100654,19.2036653 36.1100654,21.5923362 C36.1100654,29.9888718 31.0069982,31.8346598 26.1210849,32.377539 C26.9173073,33.0651863 27.6049546,34.3680951 27.6049546,36.431037 C27.6049546,39.3625835 27.5687653,41.7150615 27.5687653,42.4389006 C27.5687653,43.0179714 27.9668765,43.7056191 29.052635,43.4884679 C37.7387067,40.5931115 43.9999002,32.413732 43.9999002,22.7504769 C44.0360931,10.6623652 34.2280844,0.89053863 22.1761657,0.89053863 Z M10.6004794,34.7215152 C10.3909409,34.8610874 10.0766305,34.7215152 9.91947798,34.4889042 C9.7099395,34.2562885 9.7099395,33.9306293 9.91947798,33.8375812 C10.1290165,33.6980136 10.4433216,33.8375812 10.6004794,34.0701969 C10.8100126,34.3028125 10.8100126,34.5819476 10.6004794,34.7215152 Z M11.6927605,35.9221188 C11.5618885,36.1036083 11.2565148,36.0582348 10.9947708,35.8313717 C10.776648,35.6045132 10.6894014,35.2869075 10.8638989,35.150787 C10.9947708,34.9692974 11.3001402,35.0146709 11.5618885,35.241534 C11.780007,35.423019 11.8236324,35.7406292 11.6927605,35.9221188 Z M13.2433893,36.6546155 C13.2040546,36.9231423 12.9287195,37.0305497 12.6533844,36.9231423 C12.3780453,36.8157294 12.2207143,36.4934963 12.2600451,36.2786813 C12.2993798,36.0101546 12.5747149,35.9027472 12.8500501,36.0101546 C13.1253891,36.1175675 13.2827201,36.3860888 13.2433893,36.6546155 Z M14.9920891,36.7477286 C14.9920891,37.0242029 14.7624048,37.2453812 14.4944346,37.2453812 C14.2264683,37.2453812 13.9967839,37.0242029 13.9967839,36.7477286 C13.9967839,36.4712544 14.2264683,36.250076 14.4944346,36.250076 C14.7624009,36.250076 14.9920891,36.4712544 14.9920891,36.7477286 Z M16.6834764,36.4153634 C16.722888,36.6860704 16.5258339,36.9567827 16.2499646,37.0109263 C15.9740873,37.0650644 15.7376256,36.9026392 15.698214,36.6319322 C15.6588063,36.3612199 15.8558564,36.0905075 16.1317298,36.0363694 C16.4076031,35.9822204 16.6440687,36.1446511 16.6834764,36.4153634 Z"/>
</svg>
