<svg xmlns="http://www.w3.org/2000/svg" width="44" height="44" viewBox="0 0 44 44">
  <g fill="#000000" fill-rule="evenodd" transform="translate(1 5)">
    <path fill-opacity=".6" d="M19.4193548,14.4760002 L27.8023987,0.664870256 C28.1864688,0.0645312729 29.0319756,-0.172812045 29.6813029,0.134338132 L42.6181107,6.37507128 C42.7010035,6.41695539 42.7313977,6.51468499 42.6830434,6.58449185 L28.4354839,28.7 L19.4193548,14.4760002 Z"/>
    <path fill-opacity=".4" d="M28.4354839,28.7 L40.5143055,34.5542778 C41.8240122,35.1965009 42.8864219,34.7497371 42.8864219,33.5769817 L42.7364535,6.50999947 L28.4354839,28.7 Z"/>
    <path fill-opacity=".7" d="M1.14890982,1.2675416 L14.2667003,21.8270575 L28.4354839,28.7 L14.2984759,6.38438431 C14.2777527,6.35227316 14.2487402,6.32574656 14.2155831,6.30899291 L1.96678576,0.403332691 C0.880889664,-0.121614883 0.512016567,0.267907387 1.14890982,1.2675416 Z"/>
    <path d="M14.2755271,33.5845916 C14.2755271,34.7573467 13.3871922,35.2878789 12.2999146,34.7629313 L1.18536748,29.4017646 C0.533277214,29.0890299 0,28.2569321 0,27.5518828 L0,1.27378907 C0,0.335584894 0.7114968,-0.0888408053 1.58187153,0.331396483 L14.199542,6.41855453 C14.2465146,6.43949659 14.2755271,6.48556912 14.2755271,6.53583005 L14.2755271,33.5790069 L14.2755271,33.5845916 L14.2755271,33.5845916 L14.2755271,33.5845916 Z"/>
  </g>
</svg>
