<svg xmlns="http://www.w3.org/2000/svg" width="44" height="44" viewBox="0 0 44 44">
  <path fill="#000000" fill-rule="evenodd" d="M42.9375177,9.28456434 C41.3956297,9.97489773 39.7468719,10.4351098 38.0217785,10.6345329 C39.7926733,9.57603605 41.151371,7.88857148 41.7925444,5.87896769 C40.1285348,6.86075745 38.2965715,7.58175835 36.3425017,7.9652786 C34.7853314,6.29315545 32.5564534,5.25 30.0985991,5.25 C25.3660502,5.25 21.5342157,9.1004826 21.5342157,13.8560478 C21.5342157,14.5310398 21.6105514,15.1906903 21.7632073,15.8196427 C14.6338649,15.4514792 8.32889839,12.0305258 4.10014317,6.8300746 C3.36736091,8.10335142 2.93990586,9.57603605 2.93990586,11.1561107 C2.93990586,14.1475195 4.45126718,16.7707649 6.75647315,18.3201567 C5.35197559,18.2741324 4.03907773,17.8906275 2.87884194,17.2463184 L2.87884194,17.3537084 C2.87884194,21.5263302 5.82523049,24.9933017 9.74866002,25.7910098 C9.03114641,25.9904375 8.26783295,26.0978214 7.48925389,26.0978214 C6.93966796,26.0978214 6.40534915,26.0364603 5.87102881,25.9444163 C6.95493355,29.3653621 10.1303167,31.8505316 13.870553,31.9272341 C10.9394285,34.2283188 7.24499364,35.6089687 3.22996595,35.6089687 C2.54298384,35.6089687 1.85600187,35.5629475 1.18428626,35.486245 C4.97032039,37.9253933 9.47386858,39.3520652 14.3132737,39.3520652 C30.0680649,39.3520652 38.6782343,26.235885 38.6782343,14.8685358 C38.6782343,14.500357 38.6629672,14.1168367 38.6477001,13.7486732 C40.3422593,12.5214207 41.7925444,11.0027118 42.9375177,9.28456434 L42.9375177,9.28456434 Z"/>
</svg>
